<svg xmlns="http://www.w3.org/2000/svg" viewBox="269.11 1.79 79.09 116.88" role="img" aria-label="Simulatte"><title>Simulatte</title><path fill="currentColor" d="M308.6 100.55Q298.43 100.55 292.5 94.75Q286.57 88.96 286.57 78.97V44.55H298.07V78.92Q298.07 84.34 300.85 87.43Q303.64 90.52 308.6 90.52Q313.57 90.52 316.4 87.43Q319.24 84.34 319.24 78.92V44.55H330.74V78.97Q330.74 89 324.73 94.77Q318.72 100.55 308.6 100.55Z"/><g fill="none" stroke="var(--simulatte-accent, currentColor)" stroke-width="5.22" stroke-linecap="round"><path d="M295.4 36.3 C291.28 27.95 299.53 19.35 295.4 11"/><path d="M308.65 36.3 C304.53 27.95 312.78 19.35 308.65 11"/><path d="M321.9 36.3 C317.78 27.95 326.03 19.35 321.9 11"/></g><path fill="none" stroke="currentColor" stroke-width="6.33" stroke-linecap="round" d="M278.87 108.9 H338.44"/></svg>
